<?xml version="1.0" encoding="UTF-8"?>
<svg width="62px" height="50px" viewBox="0 0 62 50" version="1.1" xmlns="http://www.w3.org/2000/svg" xmlns:xlink="http://www.w3.org/1999/xlink">
    <title>Readers</title>
    <g id="Page-1" stroke="none" stroke-width="1" fill="none" fill-rule="evenodd">
        <g id="About-Page" transform="translate(-337.000000, -1190.000000)" fill="#626DFF">
            <g id="Group-20" transform="translate(337.000000, 1190.000000)">
                <path d="M21.7111971,17.8608978 L8.96872226,17.8608978 C8.26449258,17.8608978 7.69294385,18.4324465 7.69294385,19.1366762 C7.69294385,19.8409059 8.26449258,20.4124546 8.96872226,20.4124546 L21.7111971,20.4124546 C22.4179783,20.4124546 22.9869755,19.8409059 22.9869755,19.1366762 C22.9869755,18.4324465 22.4179783,17.8608978 21.7111971,17.8608978" id="Fill-23"></path>
                <path d="M21.7111971,25.5155683 L8.96872226,25.5155683 C8.26449258,25.5155683 7.69294385,26.087117 7.69294385,26.7913467 C7.69294385,27.4955764 8.26449258,28.0671251 8.96872226,28.0671251 L21.7111971,28.0671251 C22.4179783,28.0671251 22.9869755,27.4955764 22.9869755,26.7913467 C22.9869755,26.087117 22.4179783,25.5155683 21.7111971,25.5155683" id="Fill-24"></path>
                <path d="M21.7111971,33.1702388 L8.96872226,33.1702388 C8.26449258,33.1702388 7.69294385,33.7417875 7.69294385,34.4460172 C7.69294385,35.1502469 8.26449258,35.7217956 8.96872226,35.7217956 L21.7111971,35.7217956 C22.4179783,35.7217956 22.9869755,35.1502469 22.9869755,34.4460172 C22.9869755,33.7417875 22.4179783,33.1702388 21.7111971,33.1702388" id="Fill-25"></path>
                <path d="M58.6858071,46.3311689 C53.7255806,45.6677642 49.2322891,45.3564742 44.6522445,45.3564742 C40.5825114,45.3564742 38.2503885,45.5988721 34.0148041,46.0402915 C33.0069392,46.1449053 31.8919088,46.2622769 30.618682,46.3898547 L30.618682,9.84900937 C30.618682,9.49689452 31.8817026,8.4048282 35.7217956,7.63425804 L35.7217956,29.4526205 C35.7217956,30.1517471 36.0790136,30.7998425 36.704145,31.2285041 C37.1736315,31.5551033 37.7553864,31.7337123 38.3422445,31.7337123 C38.9393088,31.7337123 39.4980997,31.5372424 39.8680755,31.2157463 L44.7823739,27.163874 L49.4899963,31.1391996 C49.9059001,31.5040722 50.4621394,31.7030936 51.0541006,31.7030936 C52.4472507,31.7030936 53.5826934,30.6799193 53.5826934,29.4245534 L53.5826934,7.64701582 C57.2747962,8.42779221 58.6271213,9.5045492 58.6858071,9.84900937 L58.6858071,46.3311689 L58.6858071,46.3311689 Z M2.55155683,46.3260658 L2.55155683,9.84900937 C2.55155683,8.95596448 6.891755,6.86368788 15.3067894,6.86368788 C23.726927,6.86368788 28.0671251,8.95596448 28.0671251,9.84900937 L28.0671251,46.2061427 C24.7654106,45.6243877 19.4403115,45.3564742 15.3067894,45.3564742 C10.6042702,45.3564742 7.25662763,45.6703157 2.55155683,46.3260658 L2.55155683,46.3260658 Z M38.2733525,2.55155683 L51.0311366,2.55155683 L51.0311366,29.1005057 L46.445989,25.2272424 C45.6192846,24.5077034 44.1751034,24.5357705 43.4274973,25.1787628 L38.3677601,29.1796039 L38.3422445,29.1821555 C38.3422445,29.1821555 38.3116258,29.1719492 38.2733525,29.161743 L38.2733525,2.55155683 L38.2733525,2.55155683 Z M53.5826934,5.04442785 L53.5826934,1.27577842 C53.5826934,0.57154873 53.0111447,0 52.306915,0 L36.997574,0 C36.2933444,0 35.7217956,0.57154873 35.7217956,1.27577842 L35.7217956,5.03677318 C33.3054713,5.47819252 30.8355643,6.22324711 29.3735222,7.44289128 C26.8985121,5.29703198 21.0860657,4.31213104 15.3067894,4.31213104 C7.68784073,4.31213104 0,6.02167412 0,9.84900937 L0,47.7957626 C0,48.1657383 0.16074808,48.5178531 0.441419332,48.760251 C0.719539026,49.0026489 1.09461788,49.117469 1.45949051,49.0587832 C6.84327542,48.2780068 10.2878771,47.9080311 15.3067894,47.9080311 C21.0069674,47.9080311 26.760728,48.3775175 28.9882372,49.0205098 C29.1056088,49.0562316 29.2255319,49.071541 29.3429036,49.071541 C29.3582129,49.071541 29.3709707,49.0562316 29.3888316,49.0562316 C29.4143471,49.0562316 29.4398627,49.0664379 29.4653783,49.0664379 C31.3509788,48.8827258 32.9150831,48.7194261 34.280166,48.5790905 C38.4289974,48.1453258 40.7151924,47.9080311 44.6522445,47.9080311 C49.5512337,47.9080311 54.3583667,48.2729037 59.7778734,49.0587832 C59.8391108,49.0664379 59.9003482,49.071541 59.9615855,49.071541 C60.2677723,49.071541 60.5637529,48.961824 60.7959446,48.760251 C61.0766159,48.5178531 61.2373639,48.1657383 61.2373639,47.7957626 L61.2373639,9.84900937 C61.2373639,7.04229685 56.8410315,5.67466239 53.5826934,5.04442785 L53.5826934,5.04442785 Z" id="Fill-26"></path>
            </g>
        </g>
    </g>
</svg>
