<?xml version="1.0" encoding="UTF-8"?>
<svg width="47px" height="51px" viewBox="0 0 47 51" version="1.1" xmlns="http://www.w3.org/2000/svg" xmlns:xlink="http://www.w3.org/1999/xlink">
    <title>Reviewers</title>
    <g id="Page-1" stroke="none" stroke-width="1" fill="none" fill-rule="evenodd">
        <g id="About-Page" transform="translate(-1181.000000, -1189.000000)" fill="#626DFF">
            <path d="M1183.11207,1218.44219 L1225.35349,1218.44219 L1225.35349,1237.45083 L1183.11207,1237.45083 L1183.11207,1218.44219 Z M1189.93406,1209.9939 L1193.67243,1209.9939 L1193.67243,1212.10598 L1192.61639,1212.10598 C1192.03346,1212.10598 1191.56036,1212.57063 1191.56036,1213.16201 C1191.56036,1213.75339 1192.03346,1214.21805 1192.61639,1214.21805 L1215.38663,1214.21805 C1215.97167,1214.21805 1216.44266,1213.75339 1216.44266,1213.16201 C1216.44266,1212.57063 1215.97167,1212.10598 1215.38663,1212.10598 L1212.68107,1212.10598 L1212.68107,1209.9939 L1218.59698,1209.9939 L1224.0947,1216.33012 L1184.38354,1216.33012 L1189.93406,1209.9939 L1189.93406,1209.9939 Z M1195.7845,1199.43355 L1204.04692,1199.43355 L1203.62239,1199.72924 C1202.72054,1200.27838 1202.21364,1201.16545 1202.23265,1202.137 C1202.25377,1203.17192 1202.84515,1204.14347 1203.74489,1204.65037 C1204.15464,1204.86157 1204.60028,1204.9883 1205.05438,1204.9883 C1205.5824,1204.9883 1206.12097,1204.81933 1206.62998,1204.52364 C1206.64054,1204.52364 1206.65322,1204.50252 1206.66378,1204.50252 L1206.66589,1204.50252 L1206.668,1204.50252 L1206.67011,1204.50252 L1206.67222,1204.50252 L1206.67434,1204.50252 C1206.68701,1204.4814 1206.69968,1204.4814 1206.71447,1204.46028 C1207.2277,1204.14347 1208.93425,1203.08743 1210.56899,1202.137 L1210.56899,1212.10598 L1195.7845,1212.10598 L1195.7845,1199.43355 L1195.7845,1199.43355 Z M1227.44655,1217.30167 C1227.44233,1217.23831 1227.42966,1217.19607 1227.4191,1217.15383 C1227.3853,1217.00598 1227.32617,1216.87926 1227.23957,1216.75253 C1227.22268,1216.73141 1227.22479,1216.71029 1227.20789,1216.68917 L1219.87689,1208.24089 C1219.67413,1208.00856 1219.38478,1207.88183 1219.07853,1207.88183 L1212.68107,1207.88183 L1212.68107,1200.912 C1213.26822,1200.57407 1213.72654,1200.34174 1213.91452,1200.27838 C1217.08051,1199.34907 1221.29409,1196.94131 1224.27211,1195.06156 C1224.76634,1194.76587 1224.91629,1194.11113 1224.60582,1193.60423 C1224.29746,1193.11846 1223.64694,1192.97061 1223.1506,1193.28742 C1220.28663,1195.06156 1216.25258,1197.38484 1213.3168,1198.25079 C1213.29145,1198.27191 1212.48887,1198.6732 1211.39481,1199.26458 C1211.18783,1199.30683 1210.99986,1199.41243 1210.85835,1199.56027 C1209.1708,1200.46846 1207.02916,1201.69347 1205.85485,1202.58054 C1205.74502,1202.60166 1205.63731,1202.6439 1205.53593,1202.70726 C1205.24024,1202.89735 1204.98679,1202.91847 1204.76291,1202.79174 C1204.52214,1202.66502 1204.35106,1202.36933 1204.34472,1202.11588 C1204.3405,1201.88355 1204.45877,1201.69347 1204.77347,1201.50338 L1210.13602,1197.72277 C1210.61335,1197.40596 1210.7274,1196.7301 1210.39369,1196.26544 C1210.05787,1195.77967 1209.3968,1195.67406 1208.92369,1196.01199 L1207.05028,1197.32148 L1199.36446,1197.32148 C1200.83235,1195.58958 1203.51468,1193.0551 1206.78205,1192.92837 C1208.15701,1192.88613 1209.35667,1192.92837 1210.44016,1192.94949 C1213.59982,1193.0551 1216.09206,1193.13958 1218.85676,1190.87966 C1219.30875,1190.49949 1219.37422,1189.84475 1219.00672,1189.38009 C1218.63288,1188.93656 1217.96969,1188.87319 1217.51982,1189.23225 C1215.36762,1190.98527 1213.53223,1190.9219 1210.50563,1190.83742 C1209.37779,1190.8163 1208.13166,1190.77406 1206.7039,1190.8163 C1201.52511,1191.00639 1197.78674,1195.75855 1196.68846,1197.32148 L1194.72846,1197.32148 C1194.14553,1197.32148 1193.67243,1197.78613 1193.67243,1198.37751 L1193.67243,1207.88183 L1189.45673,1207.88183 C1189.15048,1207.88183 1188.86324,1208.00856 1188.66259,1208.24089 L1181.2619,1216.68917 C1181.24711,1216.71029 1181.24922,1216.73141 1181.23444,1216.75253 C1181.14362,1216.85814 1181.08026,1217.00598 1181.04647,1217.15383 C1181.03591,1217.19607 1181.02323,1217.23831 1181.01901,1217.28055 C1181.0169,1217.32279 1181,1217.34391 1181,1217.38615 L1181,1238.50686 C1181,1239.09824 1181.4731,1239.5629 1182.05604,1239.5629 L1226.40953,1239.5629 C1226.99246,1239.5629 1227.46556,1239.09824 1227.46556,1238.50686 L1227.46556,1217.38615 C1227.46556,1217.34391 1227.44867,1217.32279 1227.44655,1217.30167 L1227.44655,1217.30167 Z" id="Fill-3219"></path>
        </g>
    </g>
</svg>
